<svg width="97" height="57" viewBox="0 0 97 57" fill="none" xmlns="http://www.w3.org/2000/svg">
<path d="M81.8247 49.7008H32.824V0.406616H81.8247V49.7008Z" fill="#A1DDFF"/>
<path d="M65.2319 4.04322H57.01C56.886 4.04322 56.7656 4.09367 56.6806 4.18198C56.592 4.27028 56.5425 4.39282 56.5425 4.51897V9.89999L47.0915 -0.150231C47.0048 -0.242137 46.8879 -0.294398 46.7621 -0.2962C46.6382 -0.299804 46.5195 -0.251148 46.4292 -0.162846L14.3347 31.3502C14.1965 31.4853 14.154 31.6908 14.2266 31.8692C14.2975 32.0494 14.4675 32.1665 14.6587 32.1665H25.5918V56.3271C25.5918 56.4514 25.6414 56.5739 25.7282 56.6622C25.815 56.7505 25.9354 56.801 26.0593 56.801H64.9929C65.1151 56.801 65.2355 56.7505 65.324 56.6622C65.409 56.5739 65.4604 56.4514 65.4604 56.3271V32.1665H76.3935C76.5812 32.1665 76.7494 32.0548 76.822 31.8782C76.8964 31.7034 76.861 31.5016 76.73 31.3646L65.6994 19.6348V9.73239C65.6994 9.46929 65.4905 9.25845 65.2319 9.25845C64.9752 9.25845 64.7662 9.46929 64.7662 9.73239V19.8259C64.7662 19.9466 64.8123 20.0673 64.8955 20.1538L75.3009 31.2168H64.9929C64.8707 31.2168 64.7503 31.2673 64.6635 31.3574C64.5767 31.4457 64.5254 31.5664 64.5254 31.6926V55.8513H26.5251V31.6926C26.5251 31.5664 26.4755 31.4457 26.3887 31.3574C26.3019 31.2673 26.1815 31.2168 26.0593 31.2168H15.8133L46.7409 0.849925L56.6735 11.4119C56.8045 11.5507 57.0064 11.5957 57.1835 11.5237C57.3606 11.4498 57.4757 11.2768 57.4757 11.0822V4.99291H65.2319C65.4905 4.99291 65.6994 4.78027 65.6994 4.51897C65.6994 4.25586 65.4905 4.04322 65.2319 4.04322Z" fill="#737373"/>
<path d="M4.96289 53.9832C4.33956 53.9832 3.73393 53.8859 3.14956 53.6877C2.56872 53.4912 2.11008 53.2371 1.77539 52.9236L2.21456 51.9721C2.52977 52.2658 2.93706 52.5037 3.43289 52.6857C3.92872 52.8695 4.43872 52.9596 4.96289 52.9596C5.65705 52.9596 6.17414 52.8407 6.51414 52.5992C6.85414 52.3595 7.02414 52.0423 7.02414 51.6477C7.02414 51.3558 6.92851 51.1197 6.7408 50.9413C6.55664 50.7593 6.32643 50.6205 6.05372 50.5232C5.77924 50.4277 5.39143 50.3177 4.89206 50.1916C4.26872 50.0384 3.76226 49.8852 3.37622 49.7303C2.98841 49.5771 2.65727 49.341 2.38456 49.0239C2.11008 48.7067 1.97372 48.2778 1.97372 47.7336C1.97372 47.283 2.0906 46.8758 2.32789 46.5153C2.56341 46.1513 2.91758 45.8594 3.39039 45.6431C3.86674 45.4233 4.45997 45.3116 5.1683 45.3116C5.65883 45.3116 6.14226 45.3764 6.62039 45.5062C7.09674 45.6359 7.5058 45.8215 7.8458 46.0612L7.45622 47.0343C7.1056 46.8037 6.73372 46.6307 6.33705 46.5153C5.94039 46.4 5.5508 46.3423 5.1683 46.3423C4.49185 46.3423 3.98539 46.4685 3.64539 46.7172C3.30893 46.9677 3.14247 47.2902 3.14247 47.6831C3.14247 47.9768 3.23633 48.2147 3.42581 48.3967C3.61883 48.5751 3.85435 48.7175 4.13414 48.822C4.41747 48.9229 4.80174 49.0293 5.28872 49.1392C5.9156 49.2942 6.41851 49.4473 6.79747 49.6005C7.17997 49.7555 7.50757 49.9898 7.78205 50.3069C8.05476 50.6205 8.19289 51.0422 8.19289 51.5756C8.19289 52.0189 8.07247 52.4244 7.83164 52.7938C7.59434 53.1596 7.2331 53.4498 6.74789 53.666C6.26622 53.8787 5.67122 53.9832 4.96289 53.9832Z" fill="#545454"/>
<path d="M14.314 50.1195L12.7911 51.6982V53.8895H11.6011V45.4053H12.7911V50.1484L17.3102 45.4053H18.6702L15.1073 49.2257L18.8969 53.8895H17.5015L14.314 50.1195Z" fill="#545454"/>
<path d="M25.0162 50.9557V53.8895H23.8404V50.9341L20.5254 45.4053H21.8004L24.4708 49.8817L27.1483 45.4053H28.3241L25.0162 50.9557Z" fill="#545454"/>
<path d="M39.795 53.9832C38.9592 53.9832 38.2048 53.7958 37.5354 53.4209C36.8643 53.0461 36.3383 52.5307 35.9558 51.8711C35.5769 51.2134 35.3892 50.4727 35.3892 49.651C35.3892 48.8256 35.5769 48.0832 35.9558 47.4236C36.3383 46.7658 36.866 46.2486 37.5425 45.8738C38.2172 45.499 38.9698 45.3116 39.8021 45.3116C40.4537 45.3116 41.0487 45.4233 41.5871 45.6431C42.129 45.8648 42.5894 46.1946 42.9683 46.6307L42.1962 47.3948C41.5676 46.7226 40.7867 46.3856 39.8517 46.3856C39.2319 46.3856 38.6723 46.528 38.1729 46.8109C37.6718 47.0956 37.2804 47.4867 36.9971 47.9858C36.7173 48.4814 36.5792 49.0365 36.5792 49.651C36.5792 50.2619 36.7173 50.8169 36.9971 51.3161C37.2804 51.8117 37.6718 52.2009 38.1729 52.4839C38.6723 52.7686 39.2319 52.9091 39.8517 52.9091C40.7814 52.9091 41.5623 52.5704 42.1962 51.8928L42.9683 52.6569C42.5894 53.0894 42.1272 53.4191 41.58 53.6444C41.0364 53.8715 40.4414 53.9832 39.795 53.9832Z" fill="#545454"/>
<path d="M52.3866 52.8371V53.8895H46.3445V45.4053H52.2236V46.4649H47.5345V49.0671H51.7136V50.0979H47.5345V52.8371H52.3866Z" fill="#545454"/>
<path d="M55.9885 45.4053H57.1785V53.8895H55.9885V45.4053Z" fill="#545454"/>
<path d="M61.3469 45.4053H62.5369V52.8371H67.049V53.8895H61.3469V45.4053Z" fill="#545454"/>
<path d="M70.0864 45.4053H71.2764V53.8895H70.0864V45.4053Z" fill="#545454"/>
<path d="M82.6058 45.4053V53.8895H81.6354L76.6346 47.5678V53.8895H75.4446V45.4053H76.415L81.4158 51.7342V45.4053H82.6058Z" fill="#545454"/>
<path d="M92.5523 49.6005H93.6927V52.9091C93.2819 53.2551 92.802 53.5219 92.2548 53.7093C91.7058 53.8913 91.1356 53.9832 90.5406 53.9832C89.6995 53.9832 88.9416 53.7958 88.2669 53.4209C87.5904 53.0461 87.0592 52.5307 86.6731 51.8711C86.2906 51.2134 86.0994 50.4727 86.0994 49.651C86.0994 48.8256 86.2906 48.0832 86.6731 47.4236C87.0592 46.7604 87.5904 46.245 88.2669 45.8738C88.9469 45.499 89.7119 45.3116 90.5619 45.3116C91.2277 45.3116 91.8316 45.4233 92.3752 45.6431C92.9224 45.8648 93.3846 46.1892 93.7635 46.6163L93.0269 47.3731C92.361 46.7154 91.5553 46.3856 90.6115 46.3856C89.974 46.3856 89.402 46.5262 88.8973 46.8037C88.3961 47.083 88.0012 47.4723 87.7144 47.9714C87.431 48.467 87.2894 49.0275 87.2894 49.651C87.2894 50.2619 87.431 50.8169 87.7144 51.3161C88.0012 51.8117 88.3961 52.2009 88.8973 52.4839C89.402 52.7686 89.9686 52.9091 90.5973 52.9091C91.3428 52.9091 91.9945 52.7271 92.5523 52.3613V49.6005Z" fill="#545454"/>
</svg>
